<svg width="33" height="32" viewBox="0 0 33 32" fill="none" xmlns="http://www.w3.org/2000/svg">
<path d="M32.3425 21.4295L26.4142 15.7167L24.5672 17.5117L30.2554 22.9944L24.1062 29.2623L18.2624 23.6334L16.4155 25.4285L22.5866 31.385C23.0035 31.7863 23.5638 32.0074 24.1446 31.9998C24.7255 31.9922 25.2796 31.7565 25.6858 31.3444L32.3834 24.5188C32.786 24.1035 33.0075 23.5474 32.9998 22.9712C32.9921 22.395 32.756 21.8449 32.3425 21.4403V21.4295ZM31.9987 10.2963C32.2028 10.0977 32.3653 9.86101 32.4768 9.59983C32.5883 9.33866 32.6466 9.05818 32.6484 8.77454C32.6501 8.4909 32.5953 8.20971 32.4871 7.94719C32.3789 7.68466 32.2194 7.44599 32.0178 7.24492L25.4402 0.657576C25.0362 0.259501 24.4914 0.033867 23.9221 0.0288088C23.3528 0.0237507 22.804 0.239669 22.3929 0.630502L16.5819 6.23773L18.4343 8.02468L23.8906 2.75589L29.8898 8.74216L24.559 13.9135L26.4142 15.7058L27.6418 14.5091L31.9987 10.2963Z" fill="white"/>
<path d="M18.2624 23.6226L16.4155 25.4176L18.658 27.5863L20.4859 25.7696L18.2624 23.6226Z" fill="white"/>
<path d="M16.5764 6.22148L18.3252 8.11132L20.5786 5.95615L18.8108 4.08527L16.5764 6.22148Z" fill="white"/>
<path d="M22.7121 12.1428L21.1052 10.586L15.5943 5.27115L10.76 0.619671C10.3568 0.227221 9.81609 0.00513693 9.25138 8.80015e-05C8.68668 -0.00496092 8.14198 0.207418 7.73176 0.592596L0.734034 7.11767C0.517432 7.31908 0.344504 7.56223 0.225826 7.83223C0.107148 8.10224 0.0452133 8.39344 0.0438103 8.68801C0.0425593 8.98212 0.100562 9.2735 0.21441 9.54503C0.328257 9.81657 0.495651 10.0628 0.706752 10.2692L6.55046 15.9035L0.657645 21.5892C0.453322 21.7856 0.29007 22.02 0.177254 22.2792C0.0644369 22.5383 0.0042751 22.8169 0.000219676 23.0992C-0.00383575 23.3814 0.048295 23.6616 0.153621 23.9238C0.258947 24.186 0.415396 24.425 0.613995 24.6271L7.19158 31.3471C7.38911 31.5503 7.62546 31.7124 7.88684 31.824C8.14822 31.9356 8.42938 31.9943 8.71389 31.9969H8.74117C9.30795 31.9989 9.85242 31.7779 10.2553 31.3823L15.3051 26.4844L16.3964 25.4176L18.2624 23.6334L20.2867 21.6569L23.8606 18.194L24.5672 17.5117L26.4142 15.7167L22.7121 12.1428ZM16.41 21.841L14.5576 23.6334L8.76027 29.265L2.75833 23.1433L8.40561 17.6986L10.2553 15.9062L2.79925 8.70426L9.22951 2.7234L22.7121 15.7194L16.41 21.841Z" fill="white"/>
</svg>
