<svg width="40" height="39" viewBox="0 0 40 39" fill="none" xmlns="http://www.w3.org/2000/svg">
<path d="M39.203 26.1172L32.0172 19.1547L29.7784 21.3424L36.6732 28.0245L29.2196 35.6634L22.1363 28.8032L19.8975 30.9909L27.3777 38.2504C27.8831 38.7396 28.5621 39.009 29.2662 38.9998C29.9702 38.9905 30.6419 38.7033 31.1342 38.2009L39.2526 29.8822C39.7406 29.3761 40.0091 28.6984 39.9998 27.9962C39.9905 27.2939 39.7042 26.6235 39.203 26.1304V26.1172ZM38.7863 12.5486C39.0337 12.3066 39.2306 12.0181 39.3658 11.6998C39.5009 11.3815 39.5716 11.0397 39.5738 10.694C39.5759 10.3483 39.5095 10.0056 39.3783 9.68564C39.2471 9.36569 39.0538 9.0748 38.8095 8.82974L30.8366 0.801421C30.3469 0.316266 29.6865 0.0412754 28.9965 0.0351108C28.3064 0.0289461 27.6412 0.292096 27.1429 0.768424L20.0993 7.60223L22.3446 9.78007L28.9583 3.35874L36.2301 10.6545L29.7685 16.9571L32.0172 19.1415L33.5053 17.683L38.7863 12.5486Z" fill="url(#paint0_linear_275_111)"/>
<path d="M22.1363 28.79L19.8975 30.9778L22.6158 33.6209L24.8314 31.4067L22.1363 28.79Z" fill="url(#paint1_linear_275_111)"/>
<path d="M20.0927 7.58243L22.2123 9.88567L24.9438 7.25906L22.801 4.97892L20.0927 7.58243Z" fill="url(#paint2_linear_275_111)"/>
<path d="M27.5298 14.799L25.582 12.9017L18.9022 6.42422L13.0424 0.755224C12.5537 0.276925 11.8983 0.00626063 11.2138 0.000107252C10.5293 -0.00604613 9.86907 0.25279 9.37182 0.722227L0.889738 8.67465C0.62719 8.92013 0.417581 9.21646 0.273729 9.54554C0.129876 9.87461 0.054804 10.2295 0.0531034 10.5885C0.051587 10.947 0.121894 11.3021 0.25989 11.633C0.397887 11.9639 0.600789 12.264 0.85667 12.5156L7.93996 19.3824L0.797146 26.3119C0.549481 26.5512 0.351601 26.8369 0.214853 27.1527C0.0781053 27.4685 0.00518194 27.8081 0.000266274 28.1521C-0.00464939 28.4961 0.0585395 28.8376 0.186208 29.1572C0.313876 29.4767 0.503511 29.768 0.744236 30.0142L8.71707 38.2042C8.95649 38.4519 9.24298 38.6495 9.55981 38.7855C9.87663 38.9215 10.2174 38.9931 10.5623 38.9962H10.5954C11.2824 38.9987 11.9423 38.7293 12.4307 38.2471L18.5517 32.2779L19.8744 30.9778L22.1363 28.8032L24.59 26.3944L28.922 22.174L29.7784 21.3424L32.0172 19.1547L27.5298 14.799ZM19.8909 26.6188L17.6456 28.8032L10.6185 35.6667L3.34343 28.206L10.1886 21.5701L12.4307 19.3857L3.39303 10.6083L11.1873 3.31914L27.5298 19.158L19.8909 26.6188Z" fill="url(#paint3_linear_275_111)"/>
<defs>
<linearGradient id="paint0_linear_275_111" x1="-3.27619e-07" y1="28.4121" x2="47.8819" y2="-7.37965" gradientUnits="userSpaceOnUse">
<stop stop-color="#0000EE"/>
<stop offset="1" stop-color="#E038FB"/>
</linearGradient>
<linearGradient id="paint1_linear_275_111" x1="-3.27619e-07" y1="28.4121" x2="47.8819" y2="-7.37965" gradientUnits="userSpaceOnUse">
<stop stop-color="#0000EE"/>
<stop offset="1" stop-color="#E038FB"/>
</linearGradient>
<linearGradient id="paint2_linear_275_111" x1="-3.27619e-07" y1="28.4121" x2="47.8819" y2="-7.37965" gradientUnits="userSpaceOnUse">
<stop stop-color="#0000EE"/>
<stop offset="1" stop-color="#E038FB"/>
</linearGradient>
<linearGradient id="paint3_linear_275_111" x1="-3.27619e-07" y1="28.4121" x2="47.8819" y2="-7.37965" gradientUnits="userSpaceOnUse">
<stop stop-color="#0000EE"/>
<stop offset="1" stop-color="#E038FB"/>
</linearGradient>
</defs>
</svg>
